<svg width="64" height="57" fill="none" xmlns="http://www.w3.org/2000/svg"><path d="M52.643 18.294a42.753 42.753 0 00-2.042-.643c.114-.462.22-.927.316-1.393 1.546-7.5.535-13.55-2.916-15.54C44.69-1.19 39.28.8 33.814 5.558a37.62 37.62 0 00-1.58 1.449 31.12 31.12 0 00-1.05-.971C25.454.948 19.713-1.195 16.264.8c-3.305 1.914-4.284 7.6-2.893 14.708.138.704.295 1.404.469 2.1-.812.23-1.6.477-2.348.738C4.776 20.687.487 24.357.487 28.165c0 3.932 4.6 7.875 11.6 10.266a36.83 36.83 0 001.715.536c-.188.75-.354 1.505-.5 2.265-1.327 6.988-.291 12.536 3.007 14.438 3.406 1.964 9.122-.055 14.688-4.92.44-.385.881-.792 1.324-1.22a41.529 41.529 0 001.715 1.565c5.39 4.639 10.716 6.513 14.01 4.606 3.4-1.97 4.509-7.93 3.073-15.182a36.477 36.477 0 00-.38-1.7c.4-.12.793-.242 1.18-.368 7.272-2.41 12-6.3 12-10.29 0-3.82-4.427-7.514-11.28-9.872l.004.005z" fill="#8989A2"/><path d="M51.065 35.883c-.347.115-.7.226-1.065.333a63.6 63.6 0 00-3.212-8.036 63.572 63.572 0 003.087-7.921c.649.188 1.279.386 1.886.6 5.87 2.02 9.45 5.009 9.45 7.31 0 2.453-3.866 5.637-10.145 7.718l-.001-.004zm-2.605 5.163c.613 2.748.714 5.586.3 8.372-.378 2.037-1.138 3.394-2.077 3.938-2 1.157-6.275-.347-10.885-4.314a40.916 40.916 0 01-1.6-1.454 63.686 63.686 0 005.317-6.752 63.265 63.265 0 008.592-1.324c.129.522.243 1.033.343 1.535l.01-.001zM22.112 53.159c-1.953.69-3.51.709-4.45.167-2-1.154-2.832-5.61-1.7-11.585a36.28 36.28 0 01.464-2.106 63.746 63.746 0 008.549 1.238A65.949 65.949 0 0030.42 47.6c-.394.38-.797.751-1.21 1.113a22.952 22.952 0 01-7.1 4.446l.002-.001zm-9.15-17.288a22.959 22.959 0 01-7.4-3.93C3.99 30.59 3.2 29.25 3.2 28.166c0-2.31 3.444-5.256 9.188-7.26.72-.25 1.448-.478 2.183-.686a64.992 64.992 0 003.092 8.012 65.99 65.99 0 00-3.13 8.126 32.81 32.81 0 01-1.571-.49v.003zm3.067-20.882c-1.192-6.093-.4-10.69 1.592-11.842 2.122-1.23 6.815.523 11.76 4.915.317.28.635.575.953.879a64.95 64.95 0 00-5.4 6.687 66.205 66.205 0 00-8.465 1.316c-.162-.648-.308-1.3-.436-1.955h-.004zm27.363 6.757a85.24 85.24 0 00-1.93-3.172c2.025.255 3.964.6 5.785 1.01a57.797 57.797 0 01-2.03 5.463 92.215 92.215 0 00-1.825-3.3v-.001zm-11.158-10.87a57.942 57.942 0 013.733 4.508 79.493 79.493 0 00-7.5 0 58.558 58.558 0 013.765-4.5l.002-.007zM21 21.765a81.184 81.184 0 00-1.791 3.28 59.83 59.83 0 01-2.01-5.485c1.81-.405 3.74-.736 5.752-.987a77.82 77.82 0 00-1.945 3.2L21 21.764zm2 16.194a57.727 57.727 0 01-5.846-.94 60.704 60.704 0 012.056-5.6 80.587 80.587 0 003.792 6.54H23zm9.3 7.689a61.145 61.145 0 01-3.817-4.568 93.93 93.93 0 003.71.072c1.294 0 2.57-.029 3.83-.085a57.65 57.65 0 01-3.714 4.582l-.01-.001zM45.243 31.32a57.535 57.535 0 012.13 5.58 57.53 57.53 0 01-5.918 1.009 94.204 94.204 0 001.948-3.228 86.855 86.855 0 001.84-3.361zm-4.187 2.007a90.628 90.628 0 01-3.043 4.91c-1.882.134-3.827.2-5.81.2-1.981 0-3.893-.061-5.742-.181a76.762 76.762 0 01-5.806-10.03 76.052 76.052 0 012.7-5.113 76.531 76.531 0 013.076-4.9 76.586 76.586 0 0111.563.002 81.184 81.184 0 013.056 4.88 93.513 93.513 0 012.735 5.09 81.633 81.633 0 01-2.726 5.135l-.003.007zm5.59-30.262c2.124 1.225 2.95 6.165 1.616 12.644-.088.422-.183.842-.285 1.26a64.903 64.903 0 00-8.482-1.34 63.66 63.66 0 00-5.362-6.691c.475-.458.961-.904 1.459-1.338 4.683-4.076 9.06-5.685 11.055-4.535h-.001z" fill="#fff"/><path d="M32.204 22.502a5.665 5.665 0 110 11.329 5.665 5.665 0 010-11.33z" fill="#8989A2"/></svg>