<svg width="135" height="36" fill="none" xmlns="http://www.w3.org/2000/svg"><path d="M78.406 10.066L86.118 7.2l-7.712-3.034V.146l13.2 5.328v3.28l-13.2 5.332v-4.02zM5.505 35.49c-2.787 0-5.087-1.395-5.087-4.509v-.166c0-3.773 3.28-5.087 7.3-5.087h1.887v-.74c0-1.56-.654-2.46-2.294-2.46a2.04 2.04 0 00-2.293 1.968H.91c.327-3.45 3.034-5.086 6.64-5.086 3.689 0 6.395 1.56 6.395 5.413v10.334h-4.18v-1.806a5.042 5.042 0 01-4.261 2.139zm4.1-5.495v-1.474h-1.72c-2.133 0-3.2.575-3.2 1.967v.166c0 1.067.654 1.807 2.133 1.807a2.5 2.5 0 002.787-2.465zm14.1 5.494c-4.267 0-7.381-2.625-7.381-7.873v-.241c0-5.253 3.28-8.04 7.38-8.04 3.528 0 6.395 1.805 6.728 5.82h-4.1c-.247-1.474-1.067-2.46-2.541-2.46-1.806 0-3.114 1.474-3.114 4.508v.494c0 3.114 1.147 4.508 3.114 4.508a2.867 2.867 0 002.787-2.787h3.94c-.25 3.528-2.63 6.072-6.811 6.072h-.002zm16.075 0c-4.267 0-7.381-2.625-7.381-7.873v-.241c0-5.247 3.28-8.035 7.38-8.035 3.528 0 6.395 1.805 6.728 5.82h-4.1c-.247-1.474-1.067-2.46-2.541-2.46-1.806 0-3.114 1.474-3.114 4.509v.492c0 3.114 1.147 4.508 3.114 4.508a2.867 2.867 0 002.787-2.787h3.934c-.245 3.524-2.624 6.067-6.805 6.067h-.002zm16.155 0c-4.427 0-7.461-2.625-7.461-7.787v-.328c0-5.166 3.2-8.034 7.38-8.034 3.855 0 7.055 2.133 7.055 7.3v1.886H52.903c.166 2.788 1.394 3.854 3.2 3.854a2.768 2.768 0 002.868-1.967h4.02c-.574 2.863-2.953 5.076-7.054 5.076h-.002zm-3.032-9.843h5.82c-.08-2.294-1.146-3.28-2.867-3.28-1.393.087-2.626.823-2.953 3.28zm12.628-5.9h4.347v2.3a4.941 4.941 0 014.674-2.627c2.787 0 4.674 1.721 4.674 5.415v10.329h-4.347v-9.675c0-1.806-.74-2.627-2.294-2.627a2.586 2.586 0 00-2.707 2.869v9.427H65.53V19.746zm21.649-4.674v4.674h2.953v3.2H87.18v7.3c0 1.146.493 1.72 1.56 1.72a3.636 3.636 0 001.474-.247v3.361a8.36 8.36 0 01-2.46.328c-3.361 0-4.92-1.56-4.92-4.675v-7.788h-1.8v-3.2h1.806v-2.87l4.34-1.803zm19.189 20.088h-4.351v-2.29a4.773 4.773 0 01-4.5 2.626c-2.787 0-4.84-1.721-4.84-5.328V19.744h4.34v9.841c0 1.806.74 2.627 2.214 2.627a2.634 2.634 0 002-.824 2.627 2.627 0 00.707-2.045v-9.517h4.347v15.335l.083-.002zm3.2-15.414h4.349v2.867a4.641 4.641 0 014.674-3.034v4.267c-2.953 0-4.674.9-4.674 3.445v7.954h-4.347l-.002-15.5zm17.8 15.741c-4.427 0-7.461-2.626-7.461-7.788v-.327c0-5.166 3.2-8.035 7.381-8.035 3.854 0 7.054 2.134 7.054 7.3v1.887H124.33c.166 2.787 1.394 3.855 3.2 3.855a2.766 2.766 0 002.868-1.967h4.02c-.654 2.861-3.034 5.075-7.054 5.075h.005zm-3.119-9.842h5.821c-.08-2.293-1.147-3.28-2.868-3.28-1.313.088-2.546.824-2.953 3.28z" fill="#8989A2"/></svg>