<svg width="55" height="34" fill="none" xmlns="http://www.w3.org/2000/svg"><path d="M23.904 1.509a.676.676 0 00-.758-.724h-2.67a1.636 1.636 0 00-1.814 1.824v22.868a.682.682 0 00.764.726h2.664a1.634 1.634 0 001.814-1.825V1.508zm30.514 7.714c0-.43-.317-.641-.749-.641h-3.24a1.107 1.107 0 00-1.177.755l-4.568 10.137-6.366-10.031a1.721 1.721 0 00-1.757-.858h-3.85a2.025 2.025 0 00-1.7.722l-6.784 7.277 6.079 8.867a1.329 1.329 0 001.176.747h3.626c.543 0 .859-.218.859-.674a1.194 1.194 0 00-.316-.715l-5.344-7.912 4.053-4.365 8.011 11.841-3.536 7.482c-.114.2-.187.419-.216.646 0 .434.318.642.751.642h3.215a1.1 1.1 0 001.176-.752L54.206 9.87c.115-.2.188-.42.212-.648zM6.941 14.677c-1.065-.24-1.4-.54-1.4-1.077 0-.418.331-.752 1.291-.752h7.773a1.632 1.632 0 001.819-1.813V9.344a.68.68 0 00-.723-.761h-9.1c-4.057.002-6.183 2.35-6.183 5.341 0 2.665 1.636 4.287 4.91 5.015l5.224 1.169c1.062.235 1.392.54 1.392 1.084 0 .412-.329.744-1.286.744h-8.1A1.63 1.63 0 00.734 23.75v1.69a.679.679 0 00.719.763h8.889c4.8 0 6.731-2.35 6.731-5.133 0-2.875-1.657-4.5-4.908-5.223l-5.224-1.17z" fill="#8989A2"/></svg>